<svg id="Layer_1" data-name="Layer 1" xmlns="http://www.w3.org/2000/svg" viewBox="0 0 40.9 27.3"><defs><style>.cls-1{fill:#ffffff;}</style></defs><title>google_plus</title><path class="cls-1" d="M40.9,11.9H36.6V7.7H33.2v4.3H29v3.4h4.3v4.3h3.4V15.3h4.3M13.6,11.1v5.3h7.4c-0.6,3.2-3.3,5.5-7.4,5.5a8.3,8.3,0,0,1,0-16.6,7.5,7.5,0,0,1,5.3,2.1h0l3.8-3.8A13.1,13.1,0,0,0,13.6,0a13.6,13.6,0,0,0,0,27.3c7.9,0,13.1-5.5,13.1-13.3a15.5,15.5,0,0,0-.3-2.9H13.6Z"/><script xmlns="" id="jv0asv_a725bf_1j_lcp8jx"/></svg>