<?xml version="1.0" encoding="utf-8"?>
<!-- Generator: Adobe Illustrator 17.1.0, SVG Export Plug-In . SVG Version: 6.00 Build 0)  -->
<!DOCTYPE svg PUBLIC "-//W3C//DTD SVG 1.1//EN" "http://www.w3.org/Graphics/SVG/1.1/DTD/svg11.dtd">
<svg version="1.1" id="Layer_1" xmlns="http://www.w3.org/2000/svg" xmlns:xlink="http://www.w3.org/1999/xlink" x="0px" y="0px"
	 viewBox="0 0 68.9 53.4" enable-background="new 0 0 68.9 53.4" xml:space="preserve">
<g>
	<g>
		<g>
			<g>
				<path fill="#00696B" d="M29.8,20c0.9,0,1.5,0.2,2,0.5c0.5,0.3,0.7,0.9,0.7,1.5c0,0.4-0.1,0.7-0.2,1c-0.1,0.3-0.3,0.6-0.5,0.8
					c-0.3,0.2-0.6,0.4-1,0.5c-0.4,0.1-0.9,0.2-1.4,0.2h-6.7l1.4-1.9h5.4c0.3,0,0.5,0,0.6-0.1c0.1-0.1,0.2-0.2,0.2-0.4
					c0-0.2-0.1-0.3-0.2-0.4c-0.1-0.1-0.3-0.1-0.6-0.1h-3.9c-0.5,0-0.9-0.1-1.2-0.2c-0.3-0.1-0.6-0.2-0.8-0.4
					c-0.2-0.2-0.4-0.4-0.5-0.7C23,20,23,19.7,23,19.4c0-0.4,0.1-0.7,0.2-1c0.1-0.3,0.3-0.5,0.5-0.7c0.2-0.2,0.6-0.4,1-0.5
					c0.4-0.1,0.9-0.2,1.4-0.2h6.2L30.9,19h-5c-0.3,0-0.4,0-0.6,0.1c-0.1,0.1-0.2,0.2-0.2,0.4c0,0.2,0.1,0.3,0.2,0.4
					c0.1,0.1,0.3,0.1,0.6,0.1H29.8z"/>
				<path fill="#00696B" d="M29.4,25.8h-6.7c-0.5,0-0.9-0.3-1.1-0.7c-0.2-0.4-0.2-0.9,0.1-1.3l1.3-1.7c-0.1,0-0.1-0.1-0.2-0.1
					c-0.4-0.3-0.7-0.7-0.9-1.2c-0.2-0.4-0.3-0.9-0.3-1.4c0-0.5,0.1-1,0.3-1.5c0.2-0.5,0.5-0.9,0.9-1.2c0.4-0.3,0.8-0.5,1.4-0.7
					c0.5-0.1,1.1-0.2,1.7-0.2h6.2c0.5,0,0.9,0.3,1.1,0.7s0.2,0.9-0.1,1.3l-1.1,1.5c0.1,0.1,0.2,0.1,0.3,0.2c0.5,0.4,1.2,1.2,1.2,2.6
					c0,0.5-0.1,1-0.3,1.5c-0.2,0.5-0.5,1-0.9,1.3c-0.4,0.3-0.9,0.6-1.4,0.7C30.6,25.7,30.1,25.8,29.4,25.8z"/>
			</g>
			<g>
				<path fill="#00696B" d="M46.7,22.6l-1.4,1.9h-3.6c-0.6,0-1.2-0.1-1.7-0.3c-0.5-0.2-1-0.5-1.4-0.8c-0.4-0.3-0.7-0.7-0.9-1.2
					c-0.2-0.5-0.3-1-0.3-1.5c0-0.5,0.1-1,0.3-1.5c0.2-0.4,0.5-0.8,0.9-1.2c0.4-0.3,0.8-0.6,1.4-0.7c0.5-0.2,1.1-0.3,1.7-0.3h5
					L45.3,19h-3.6c-0.3,0-0.6,0-0.8,0.1c-0.3,0.1-0.5,0.2-0.7,0.4c-0.2,0.2-0.3,0.4-0.4,0.6c-0.1,0.2-0.2,0.5-0.2,0.7
					c0,0.3,0.1,0.5,0.2,0.7c0.1,0.2,0.3,0.4,0.4,0.6c0.2,0.2,0.4,0.3,0.7,0.4c0.3,0.1,0.5,0.1,0.8,0.1H46.7z"/>
				<path fill="#00696B" d="M45.3,25.8h-3.6c-0.8,0-1.5-0.1-2.1-0.4c-0.7-0.2-1.3-0.6-1.8-1c-0.5-0.5-0.9-1-1.2-1.6
					c-0.3-0.6-0.5-1.3-0.5-2.1c0-0.7,0.2-1.4,0.5-2.1c0.3-0.6,0.7-1.1,1.2-1.6c0.5-0.4,1.1-0.7,1.8-1c0.6-0.2,1.4-0.3,2.1-0.3h5
					c0.5,0,0.9,0.3,1.1,0.7c0.2,0.4,0.2,0.9-0.1,1.3l-1.4,1.9c-0.2,0.3-0.6,0.5-1,0.5h-3.6c-0.2,0-0.3,0-0.5,0.1
					c-0.1,0-0.2,0.1-0.3,0.1c-0.1,0.1-0.1,0.1-0.1,0.2c0,0,0,0.1,0,0.2c0,0.1,0,0.2,0,0.2c0,0.1,0.1,0.1,0.1,0.1
					c0.1,0.1,0.2,0.1,0.3,0.1c0.1,0,0.3,0.1,0.5,0.1h5c0.5,0,0.9,0.3,1.1,0.7c0.2,0.4,0.2,0.9-0.1,1.3l-1.4,1.9
					C46,25.6,45.7,25.8,45.3,25.8z"/>
			</g>
		</g>
		<g>
			<g>
				<path fill="#00696B" d="M40.3,13.8l-1.4,1.9h-2.6v5.5h-2.2v-5.5h-3.4l1.4-1.9H40.3z"/>
				<path fill="#00696B" d="M36.3,22.5h-2.2c-0.7,0-1.2-0.6-1.2-1.3V17h-2.2c-0.5,0-0.9-0.3-1.1-0.7c-0.2-0.4-0.2-0.9,0.1-1.3
					l1.4-1.9c0.2-0.3,0.6-0.5,1-0.5h8.2c0.5,0,0.9,0.3,1.1,0.7c0.2,0.4,0.2,0.9-0.1,1.3l-1.4,1.9c-0.2,0.3-0.6,0.5-1,0.5h-1.3v4.3
					C37.5,22,37,22.5,36.3,22.5z"/>
			</g>
		</g>
	</g>
	<g>
		<g>
			<g>
				<path fill="#FFFFFF" d="M29.4,24.7h-7.1l1.7-2.3h5.5c0.3,0,0.4-0.1,0.5-0.1c0,0,0.1-0.1,0.1-0.2c0-0.2-0.1-0.2-0.1-0.2
					c-0.1,0-0.2-0.1-0.5-0.1h-3.9c-0.5,0-0.9-0.1-1.3-0.2c-0.4-0.1-0.7-0.3-0.9-0.5c-0.2-0.2-0.4-0.5-0.6-0.8
					c-0.1-0.3-0.2-0.6-0.2-1c0-0.4,0.1-0.7,0.2-1c0.1-0.3,0.3-0.6,0.6-0.8c0.3-0.2,0.6-0.4,1-0.5c0.4-0.1,0.9-0.2,1.5-0.2h6.6
					L31,19.2h-5.1c-0.3,0-0.4,0-0.5,0.1c0,0-0.1,0.1-0.1,0.2c0,0.2,0.1,0.2,0.1,0.2c0.1,0,0.2,0.1,0.5,0.1h3.9
					c0.9,0,1.6,0.2,2.1,0.5c0.5,0.4,0.8,1,0.8,1.7c0,0.4-0.1,0.8-0.2,1.1c-0.1,0.3-0.3,0.6-0.6,0.9c-0.3,0.2-0.6,0.4-1,0.5
					C30.5,24.7,30,24.7,29.4,24.7z M23.1,24.3h6.3c0.5,0,1-0.1,1.3-0.2c0.4-0.1,0.7-0.3,0.9-0.4c0.2-0.2,0.4-0.4,0.5-0.7
					c0.1-0.3,0.2-0.6,0.2-1c0-0.6-0.2-1.1-0.6-1.4c-0.4-0.3-1.1-0.5-1.9-0.5h-3.9c-0.3,0-0.5,0-0.7-0.1c-0.1-0.1-0.3-0.2-0.3-0.6
					c0-0.3,0.2-0.5,0.3-0.6c0.2-0.1,0.4-0.1,0.7-0.1h4.9l1.1-1.5h-5.8c-0.5,0-1,0.1-1.3,0.2c-0.4,0.1-0.7,0.2-0.9,0.4
					c-0.2,0.2-0.4,0.4-0.5,0.6c-0.1,0.3-0.2,0.6-0.2,0.9c0,0.3,0,0.6,0.1,0.8c0.1,0.2,0.2,0.4,0.4,0.6c0.2,0.2,0.5,0.3,0.8,0.4
					c0.3,0.1,0.7,0.1,1.1,0.1h3.9c0.3,0,0.5,0.1,0.7,0.2c0.1,0.1,0.3,0.3,0.3,0.6c0,0.3-0.1,0.5-0.3,0.6c-0.2,0.1-0.4,0.2-0.7,0.2
					h-5.3L23.1,24.3z"/>
			</g>
			<g>
				<path fill="#FFFFFF" d="M45.4,24.7h-3.7c-0.6,0-1.2-0.1-1.8-0.3c-0.5-0.2-1-0.5-1.4-0.8c-0.4-0.4-0.7-0.8-1-1.3
					c-0.2-0.5-0.3-1-0.3-1.6c0-0.6,0.1-1.1,0.3-1.6c0.2-0.5,0.6-0.9,1-1.2c0.4-0.3,0.9-0.6,1.4-0.8c0.5-0.2,1.1-0.3,1.8-0.3h5.4
					l-1.7,2.4h-3.7c-0.3,0-0.5,0-0.8,0.1c-0.2,0.1-0.4,0.2-0.6,0.3c-0.2,0.1-0.3,0.3-0.4,0.5c-0.1,0.2-0.1,0.4-0.1,0.6
					c0,0.2,0,0.4,0.1,0.6c0.1,0.2,0.2,0.4,0.4,0.5c0.2,0.1,0.4,0.2,0.6,0.3c0.2,0.1,0.5,0.1,0.8,0.1h5.4L45.4,24.7z M41.7,17.3
					c-0.6,0-1.2,0.1-1.7,0.3c-0.5,0.2-0.9,0.4-1.3,0.7c-0.4,0.3-0.6,0.7-0.8,1.1c-0.2,0.4-0.3,0.9-0.3,1.4c0,0.5,0.1,1,0.3,1.4
					c0.2,0.4,0.5,0.8,0.9,1.1c0.4,0.3,0.8,0.6,1.3,0.8c0.5,0.2,1.1,0.3,1.7,0.3h3.5l1.1-1.5h-4.6c-0.3,0-0.6,0-0.9-0.1
					c-0.3-0.1-0.5-0.2-0.7-0.4c-0.2-0.2-0.4-0.4-0.5-0.6c-0.1-0.2-0.2-0.5-0.2-0.8c0-0.3,0.1-0.6,0.2-0.8c0.1-0.3,0.3-0.5,0.5-0.6
					c0.2-0.2,0.4-0.3,0.7-0.4c0.3-0.1,0.6-0.1,0.9-0.1h3.5l1.1-1.5H41.7z"/>
			</g>
		</g>
		<g>
			<g>
				<path fill="#FFFFFF" d="M36.5,21.5h-2.6v-5.5h-3.6l1.8-2.4h8.7L39,15.9h-2.5V21.5z M34.3,21.1h1.8v-5.5h2.7l1.1-1.5h-7.6
					l-1.1,1.5h3.2V21.1z"/>
			</g>
		</g>
	</g>
	<g>
		<g>
			<path fill="#00696B" d="M31.3,4.2c4-1,8.8-0.4,13,2.1c6.4,3.8,9.8,10.6,8.9,16.8c2-6.5-1.1-14.1-7.6-18
				C40.9,2.4,35.5,2.2,31.3,4.2z"/>
		</g>
		<g>
			<path fill="#00696B" d="M20.1,15.1c1.1-4.2,4-8.2,8.2-10.8C34.6,0.3,42,0.6,46.7,4.5c-4.5-5-12.4-6-18.8-2
				C23.3,5.4,20.5,10.2,20.1,15.1z"/>
		</g>
		<g>
			<path fill="#00696B" d="M23.7,30.5c-2.9-3.1-4.9-7.6-5-12.7c-0.2-7.7,3.7-14.3,9.3-16.6C21.5,2.7,16.8,9.4,17,17.2
				C17.2,22.8,19.8,27.7,23.7,30.5z"/>
		</g>
		<g>
			<path fill="#00696B" d="M38.3,34.8c-4,1.2-8.8,0.7-13.1-1.7c-6.5-3.6-10.1-10.4-9.3-16.6c-1.8,6.6,1.4,14.1,8.1,17.8
				C28.7,37,34.1,37,38.3,34.8z"/>
		</g>
		<g>
			<path fill="#00696B" d="M49.2,23.7c-1,4.2-3.7,8.3-7.9,11c-6.2,4.1-13.7,4-18.5,0.3c4.6,4.9,12.5,5.7,18.9,1.5
				C46.3,33.5,48.9,28.6,49.2,23.7z"/>
		</g>
		<g>
			<path fill="#00696B" d="M45.2,8.4c3,3,5.1,7.5,5.3,12.6c0.4,7.7-3.3,14.4-8.8,16.9c6.4-1.8,10.9-8.5,10.5-16.4
				C51.9,15.9,49.2,11.1,45.2,8.4z"/>
		</g>
	</g>
</g>
<g>
	<path fill="#00696B" d="M5.6,45.1H5.3c0-0.4,0.1-0.8,0.1-1c0-0.3-0.1-0.6-0.2-0.8c-0.2-0.2-0.4-0.3-0.6-0.3c-0.4,0-0.8,0.2-1.1,0.5
		c-0.3,0.3-0.5,0.7-0.5,1.1c0,0.2,0,0.4,0.1,0.6c0.1,0.2,0.3,0.4,0.6,0.7c0.5,0.6,0.9,1,1,1.3c0.2,0.3,0.2,0.6,0.2,0.9
		c0,0.5-0.1,0.9-0.4,1.3c-0.2,0.4-0.6,0.8-1.1,1c-0.5,0.3-1,0.4-1.5,0.4c-0.5,0-1-0.2-1.3-0.5C0.2,50.3,0,50,0,49.6
		c0-0.2,0-0.3,0.1-0.5C0.2,49.1,0.3,49,0.5,49c0.1,0,0.2,0.1,0.3,0.2c0.1,0.1,0.1,0.2,0.2,0.4c0.1,0.3,0.1,0.5,0.2,0.6
		c0.1,0.1,0.2,0.2,0.4,0.3c0.2,0.1,0.3,0.1,0.5,0.1c0.5,0,1-0.2,1.4-0.6S4,49.2,4,48.7c0-0.2,0-0.3-0.1-0.5
		c-0.1-0.2-0.1-0.3-0.3-0.6c-0.1-0.1-0.3-0.4-0.6-0.7c-0.3-0.3-0.5-0.6-0.6-0.7c-0.1-0.2-0.2-0.4-0.3-0.6s-0.1-0.4-0.1-0.6
		c0-0.4,0.1-0.8,0.3-1.1s0.5-0.7,0.9-0.9c0.4-0.2,0.8-0.3,1.2-0.3c0.2,0,0.5,0,0.9,0.1c0.2,0,0.4,0.1,0.5,0.1
		c-0.1,0.3-0.1,0.5-0.2,0.8C5.7,44,5.7,44.4,5.6,45.1z"/>
	<path fill="#00696B" d="M7.6,44l0.9-0.4l-0.4,1.7h1.2l-0.1,0.4H8l-0.5,2.1c-0.2,0.6-0.2,1.1-0.2,1.3c0,0.1,0,0.2,0.1,0.2
		c0,0,0.1,0.1,0.2,0.1c0.1,0,0.3-0.1,0.5-0.2C8.4,49,8.7,48.8,9,48.6l0.2,0.3c-0.8,0.7-1.4,1.1-1.7,1.2s-0.5,0.2-0.7,0.2
		c-0.1,0-0.2-0.1-0.3-0.2s-0.1-0.3-0.1-0.5c0-0.3,0.1-0.7,0.2-1.4l0.6-2.5H6.3l0.1-0.4h0.9L7.6,44z"/>
	<path fill="#00696B" d="M12.7,48.6l0.2,0.3c-0.9,1-1.7,1.4-2.4,1.4c-0.3,0-0.5-0.1-0.6-0.3c-0.1-0.2-0.2-0.5-0.2-1
		c0-0.9,0.2-1.8,0.7-2.6c0.5-1,1.2-1.5,2-1.5c0.3,0,0.5,0.1,0.6,0.2c0.1,0.1,0.2,0.3,0.2,0.6c0,0.3-0.1,0.5-0.3,0.8
		c-0.2,0.3-0.5,0.5-0.9,0.8c-0.2,0.1-0.7,0.4-1.4,0.7c0,0.2-0.1,0.4-0.1,0.6c0,0.3,0,0.5,0.1,0.6c0.1,0.1,0.2,0.2,0.4,0.2
		c0.2,0,0.3,0,0.5-0.1C11.9,49.2,12.2,49,12.7,48.6z M10.7,47.7c0.6-0.3,1.1-0.6,1.4-1c0.2-0.2,0.3-0.5,0.3-0.7c0-0.2,0-0.3-0.1-0.4
		s-0.2-0.2-0.3-0.2c-0.1,0-0.3,0.1-0.4,0.2c-0.2,0.2-0.3,0.4-0.4,0.7C10.9,46.8,10.8,47.2,10.7,47.7z"/>
	<path fill="#00696B" d="M16.6,48.6l0.2,0.3c-0.9,1-1.7,1.4-2.4,1.4c-0.3,0-0.5-0.1-0.6-0.3c-0.1-0.2-0.2-0.5-0.2-1
		c0-0.9,0.2-1.8,0.7-2.6c0.5-1,1.2-1.5,2-1.5c0.3,0,0.5,0.1,0.6,0.2c0.1,0.1,0.2,0.3,0.2,0.6c0,0.3-0.1,0.5-0.3,0.8
		c-0.2,0.3-0.5,0.5-0.9,0.8c-0.2,0.1-0.7,0.4-1.4,0.7c0,0.2-0.1,0.4-0.1,0.6c0,0.3,0,0.5,0.1,0.6c0.1,0.1,0.2,0.2,0.4,0.2
		c0.2,0,0.3,0,0.5-0.1C15.8,49.2,16.2,49,16.6,48.6z M14.7,47.7c0.6-0.3,1.1-0.6,1.4-1c0.2-0.2,0.3-0.5,0.3-0.7c0-0.2,0-0.3-0.1-0.4
		s-0.2-0.2-0.3-0.2c-0.1,0-0.3,0.1-0.4,0.2c-0.2,0.2-0.3,0.4-0.4,0.7C14.9,46.8,14.7,47.2,14.7,47.7z"/>
	<path fill="#00696B" d="M19.9,48.7l0.2,0.2c-0.3,0.4-0.6,0.7-1,1c-0.4,0.3-0.7,0.4-1,0.4c-0.1,0-0.2,0-0.3-0.1
		c-0.1-0.1-0.1-0.2-0.1-0.4c0-0.3,0.1-1,0.3-2.1l0.6-2.7c0.2-1,0.4-1.6,0.6-2c0.2-0.5,0.6-0.9,1-1.2c0.4-0.3,0.9-0.4,1.3-0.4
		c0.2,0,0.3,0,0.4,0.1c0.1,0.1,0.1,0.2,0.1,0.3c0,0.1,0,0.2-0.1,0.3c-0.1,0.1-0.2,0.1-0.4,0.1c-0.1,0-0.3,0-0.5-0.1
		c-0.2,0-0.3,0-0.5,0c-0.2,0-0.3,0-0.3,0.1c-0.1,0.1-0.2,0.3-0.3,0.6c-0.1,0.3-0.2,0.9-0.4,1.9l-0.6,2.6c-0.3,1.3-0.4,2-0.4,2
		c0,0.1,0,0.2,0.1,0.2c0.1,0,0.2-0.1,0.4-0.2C19.3,49.3,19.6,49,19.9,48.7z"/>
	<path fill="#00696B" d="M27.5,49.8l-0.1,0.4c-0.3,0.1-0.5,0.1-0.6,0.1c-0.2,0-0.4,0-0.8-0.1c-0.3,0-0.5,0-0.7,0
		c-0.4,0-0.8,0-1.2,0.1l0.1-0.3c0.4,0,0.7-0.1,0.8-0.3c0.1-0.1,0.2-0.3,0.3-0.5c0.1-0.2,0.3-1,0.6-2.4l0.7-3.3l0-0.2
		c-0.2,0-0.4,0-0.5,0c-0.7,0-1.2,0.1-1.7,0.2c-0.4,0.2-0.7,0.4-0.9,0.7c-0.2,0.3-0.3,0.7-0.3,1c0,0.1,0,0.2,0.1,0.4
		c0,0.1,0.1,0.2,0.2,0.4c0.1,0.2,0.2,0.3,0.2,0.4c0,0.1,0,0.2-0.1,0.3c-0.1,0.1-0.2,0.1-0.3,0.1c-0.2,0-0.3-0.1-0.4-0.2
		c-0.1-0.2-0.2-0.6-0.2-0.9c0-0.5,0.1-1,0.4-1.5c0.3-0.5,0.7-0.8,1.2-1.1c0.5-0.3,1.1-0.4,1.8-0.4c0.3,0,0.9,0.1,1.6,0.2
		C28.4,43,28.8,43,29,43c0.2,0,0.4,0,0.5-0.1s0.1-0.2,0.1-0.3c0,0,0-0.1,0-0.2c0-0.1,0-0.1,0-0.2c0-0.1,0-0.2,0.1-0.3
		s0.1-0.1,0.2-0.1c0.1,0,0.2,0,0.3,0.1c0.1,0.1,0.1,0.2,0.1,0.4c0,0.3-0.2,0.6-0.5,0.8s-0.8,0.3-1.5,0.3c-0.3,0-0.5,0-0.8,0
		c0,0.1-0.2,0.7-0.4,1.5l-0.5,2.1l-0.3,1.3l-0.3,1.5c0.3,0,0.5,0,0.6,0C27,49.9,27.2,49.9,27.5,49.8z"/>
	<path fill="#00696B" d="M29.7,50.1h-0.8l0.4-1.7c0.2-0.8,0.4-1.6,0.5-2.3c0-0.2,0.1-0.3,0.1-0.3c0-0.1,0-0.1-0.1-0.1
		c-0.1,0-0.1,0-0.3,0.1c-0.1,0.1-0.3,0.3-0.6,0.6l-0.2-0.2c0.4-0.4,0.7-0.7,1.1-1s0.6-0.3,0.8-0.3c0.1,0,0.1,0,0.2,0.1
		c0,0,0.1,0.1,0.1,0.1s0,0.2-0.1,0.4l-0.2,1.1c0.4-0.7,0.8-1.2,1.3-1.7c0.2-0.2,0.4-0.3,0.6-0.3c0.1,0,0.2,0,0.3,0.1
		c0.1,0.1,0.1,0.2,0.1,0.3c0,0.1,0,0.2-0.1,0.3c-0.1,0.1-0.3,0.2-0.5,0.3c-0.3,0.1-0.5,0.2-0.7,0.4c-0.2,0.1-0.4,0.4-0.6,0.7
		c-0.2,0.3-0.4,0.6-0.4,0.8c-0.1,0.2-0.2,0.7-0.4,1.5L29.7,50.1z"/>
	<path fill="#00696B" d="M36,44.8l0.4-0.1l-0.4,1.6c-0.2,0.6-0.3,1.3-0.5,2.2c-0.1,0.4-0.1,0.7-0.1,0.9c0,0.1,0,0.2,0.1,0.2
		c0.1,0,0.2,0,0.3-0.1c0.2-0.2,0.5-0.3,0.7-0.6l0.2,0.2c-0.4,0.4-0.7,0.7-0.8,0.8c-0.2,0.2-0.5,0.3-0.7,0.4
		c-0.1,0.1-0.3,0.1-0.4,0.1c-0.1,0-0.2,0-0.2-0.1c0,0-0.1-0.1-0.1-0.2c0-0.1,0-0.1,0-0.3l0.2-0.8c-0.3,0.4-0.7,0.8-1.2,1.1
		c-0.3,0.2-0.5,0.3-0.8,0.3c-0.2,0-0.4-0.1-0.5-0.3c-0.2-0.2-0.2-0.5-0.2-0.9c0-0.4,0.1-0.9,0.3-1.5c0.2-0.5,0.5-1,0.9-1.5
		c0.4-0.4,0.7-0.8,1.1-1c0.3-0.2,0.7-0.2,1.2-0.2c0.1,0,0.2,0,0.4,0L36,44.8z M35.3,45.8c-0.2,0-0.4-0.1-0.5-0.1
		c-0.3,0-0.6,0.1-0.9,0.3c-0.3,0.2-0.5,0.6-0.7,1.1s-0.3,1.1-0.3,1.6c0,0.3,0,0.5,0.1,0.6s0.2,0.2,0.3,0.2c0.3,0,0.5-0.2,0.8-0.5
		c0.3-0.3,0.5-0.7,0.7-1.3L35.3,45.8z"/>
	<path fill="#00696B" d="M41.3,48.9l0.2,0.2c-0.5,0.5-0.9,0.8-1.1,0.9c-0.3,0.2-0.6,0.3-0.8,0.3c-0.1,0-0.2,0-0.2-0.1
		s-0.1-0.1-0.1-0.2s0-0.2,0.1-0.3l0.2-0.8c-0.5,0.5-0.8,0.9-1.1,1.1c-0.3,0.2-0.6,0.3-0.8,0.3c-0.2,0-0.4-0.1-0.5-0.3
		c-0.1-0.2-0.2-0.5-0.2-0.8c0-0.6,0.2-1.3,0.5-2c0.4-0.8,0.8-1.3,1.2-1.7c0.4-0.4,0.9-0.5,1.2-0.5c0.1,0,0.2,0,0.4,0
		c0.2-0.8,0.3-1.4,0.5-1.8c0.2-0.4,0.4-0.7,0.6-1c0.3-0.3,0.5-0.5,0.9-0.6c0.3-0.1,0.6-0.2,0.9-0.2c0.2,0,0.3,0,0.4,0.1
		c0.1,0.1,0.1,0.2,0.1,0.3c0,0.1,0,0.2-0.1,0.3c-0.1,0.1-0.2,0.1-0.3,0.1c-0.1,0-0.3,0-0.5-0.1c-0.3,0-0.4-0.1-0.5-0.1
		c-0.1,0-0.2,0-0.3,0.1c-0.1,0.1-0.2,0.3-0.3,0.6c-0.1,0.2-0.2,0.8-0.4,1.8l-0.8,3.7c-0.1,0.4-0.1,0.7-0.1,0.9
		c0,0.2,0.1,0.2,0.2,0.2c0.1,0,0.1,0,0.2-0.1C40.7,49.4,40.9,49.2,41.3,48.9z M40.1,45.7c-0.3-0.1-0.5-0.1-0.6-0.1
		c-0.3,0-0.5,0.1-0.7,0.3s-0.5,0.6-0.7,1.3c-0.2,0.6-0.3,1.2-0.3,1.6c0,0.2,0.1,0.4,0.2,0.5c0.1,0.1,0.2,0.2,0.4,0.2
		c0.2,0,0.3-0.1,0.5-0.2c0.3-0.2,0.5-0.5,0.7-0.8c0.1-0.2,0.2-0.7,0.4-1.5L40.1,45.7z"/>
	<path fill="#00696B" d="M42.2,46.4L42,46.2c0.4-0.5,0.7-0.8,1-1c0.3-0.2,0.6-0.3,0.8-0.3c0.1,0,0.2,0,0.3,0.1
		c0.1,0.1,0.1,0.1,0.1,0.2c0,0.1-0.1,0.6-0.4,1.5c-0.4,1.5-0.6,2.3-0.6,2.6c0,0.1,0,0.1,0,0.1s0.1,0.1,0.1,0.1
		c0.1,0,0.4-0.3,0.9-0.8l0.2,0.2c-0.5,0.5-0.9,0.9-1.1,1c-0.2,0.1-0.4,0.2-0.6,0.2c-0.1,0-0.2,0-0.3-0.1c-0.1-0.1-0.1-0.2-0.1-0.4
		c0-0.5,0.3-1.8,0.8-3.8c0-0.1,0-0.2,0-0.3c0-0.1,0-0.1-0.1-0.1c-0.1,0-0.2,0-0.3,0.1C42.8,45.8,42.6,46,42.2,46.4z M44.4,42.3
		c0.1,0,0.2,0,0.3,0.1s0.1,0.2,0.1,0.3c0,0.2-0.1,0.3-0.2,0.5s-0.2,0.2-0.4,0.2c-0.1,0-0.2,0-0.3-0.1c-0.1-0.1-0.1-0.2-0.1-0.3
		c0-0.2,0.1-0.3,0.2-0.5C44.2,42.4,44.3,42.3,44.4,42.3z"/>
	<path fill="#00696B" d="M45,46.4l-0.2-0.2c0.5-0.5,0.9-0.8,1.2-1c0.3-0.2,0.5-0.2,0.7-0.2c0.1,0,0.1,0,0.2,0.1c0,0,0.1,0.1,0.1,0.1
		c0,0,0,0.1,0,0.2l-0.3,1.2c0.4-0.5,0.9-0.9,1.4-1.3c0.3-0.2,0.6-0.3,0.8-0.3c0.1,0,0.3,0.1,0.3,0.2c0.1,0.1,0.1,0.3,0.1,0.4
		c0,0.1,0,0.3-0.1,0.4c-0.1,0.3-0.2,0.9-0.5,1.7c-0.2,0.8-0.4,1.4-0.4,1.7c0,0.1,0,0.1,0,0.2c0,0,0.1,0.1,0.1,0.1
		c0.1,0,0.3-0.1,0.5-0.3c0.2-0.2,0.3-0.3,0.5-0.5l0.1,0.2c-0.3,0.4-0.7,0.8-1.1,1c-0.2,0.2-0.4,0.2-0.6,0.2c-0.1,0-0.3-0.1-0.3-0.2
		c-0.1-0.1-0.1-0.3-0.1-0.6c0-0.4,0.2-1.3,0.6-2.7c0.1-0.5,0.2-0.8,0.2-0.9c0-0.1-0.1-0.2-0.2-0.2c-0.2,0-0.3,0.1-0.6,0.3
		c-0.4,0.3-0.6,0.6-0.9,0.9c-0.2,0.2-0.3,0.6-0.4,1.1l-0.5,2.2h-0.8c0.2-0.6,0.3-1.2,0.4-1.8L46,46c0-0.1,0-0.2,0-0.2
		c0-0.1,0-0.2-0.1-0.2c-0.1,0-0.1,0-0.3,0.1C45.4,45.9,45.2,46.2,45,46.4z"/>
	<path fill="#00696B" d="M53.9,44.9l0.5-0.1c-0.3,1-0.5,1.9-0.8,2.9c-0.2,0.7-0.3,1.3-0.3,1.7c0,0.2-0.1,0.5-0.1,0.9
		c0,0.6-0.1,1.1-0.2,1.4c-0.2,0.5-0.5,0.9-0.9,1.2c-0.4,0.3-0.9,0.5-1.5,0.5c-0.5,0-0.9-0.1-1.2-0.4S49,52.5,49,52.1
		c0-0.3,0.1-0.6,0.4-0.9c0.2-0.2,0.5-0.5,1.1-0.8c0.3-0.2,0.5-0.3,0.8-0.5c-0.3,0.2-0.5,0.2-0.7,0.2c-0.1,0-0.3-0.1-0.4-0.2
		c-0.1-0.1-0.2-0.3-0.2-0.6c0-0.8,0.2-1.5,0.6-2.3c0.4-0.7,0.9-1.3,1.5-1.7c0.4-0.2,0.8-0.3,1.3-0.3c0.1,0,0.2,0,0.4,0L53.9,44.9z
		 M52.5,49.2c-0.3,0.3-0.7,0.7-1.5,1.2c-0.6,0.5-1,0.8-1.2,1c-0.1,0.2-0.2,0.4-0.2,0.7c0,0.2,0.1,0.4,0.3,0.6
		c0.2,0.2,0.4,0.3,0.7,0.3c0.3,0,0.5-0.1,0.7-0.2c0.2-0.1,0.5-0.3,0.6-0.6s0.3-0.6,0.4-0.9c0.1-0.3,0.1-0.8,0.1-1.3
		C52.5,49.9,52.5,49.6,52.5,49.2z M53.3,45.8c-0.2,0-0.3-0.1-0.5-0.1c-0.4,0-0.7,0.1-0.9,0.3s-0.5,0.6-0.7,1
		c-0.3,0.7-0.4,1.3-0.4,1.7c0,0.2,0,0.4,0.1,0.5c0.1,0.1,0.2,0.2,0.3,0.2c0.2,0,0.3-0.1,0.6-0.2c0.2-0.2,0.4-0.4,0.5-0.6
		c0.1-0.2,0.3-0.7,0.4-1.2L53.3,45.8z"/>
	<path fill="#00696B" d="M63,45.4h-0.3c0-0.3,0-0.6,0-0.8c0-0.6-0.1-1-0.3-1.2s-0.5-0.3-0.8-0.3c-0.4,0-0.9,0.2-1.4,0.6
		s-0.9,1-1.2,1.9c-0.3,0.8-0.5,1.7-0.5,2.6c0,0.9,0.2,1.5,0.5,2c0.3,0.5,0.7,0.7,1.2,0.7c0.7,0,1.3-0.4,1.8-1.3
		c0.1-0.1,0.1-0.1,0.2-0.1c0,0,0.1,0,0.1,0.1c0,0,0.1,0.1,0.1,0.1c0,0.1-0.1,0.3-0.4,0.7s-0.6,0.6-0.9,0.8c-0.4,0.2-0.8,0.3-1.1,0.3
		c-0.4,0-0.9-0.1-1.2-0.4c-0.4-0.3-0.7-0.6-0.9-1.1c-0.2-0.5-0.3-1-0.3-1.7c0-0.9,0.2-1.8,0.6-2.7c0.4-0.9,1-1.6,1.6-2.1
		c0.6-0.5,1.3-0.7,1.9-0.7c0.2,0,0.4,0,0.7,0.1c0.1,0,0.5,0.2,1.2,0.4C63.1,43.9,63,44.7,63,45.4z"/>
	<path fill="#00696B" d="M66,44.9c0.4,0,0.7,0.2,0.9,0.5c0.2,0.3,0.4,0.8,0.4,1.3c0,0.9-0.3,1.7-0.9,2.5c-0.6,0.7-1.2,1.1-1.9,1.1
		c-0.4,0-0.7-0.1-1-0.4c-0.2-0.3-0.4-0.7-0.4-1.2c0-0.9,0.2-1.7,0.7-2.4C64.5,45.4,65.2,44.9,66,44.9z M65.6,45.4
		c-0.3,0-0.6,0.3-0.9,0.8s-0.4,1.2-0.4,2.1c0,0.5,0.1,1,0.3,1.3c0.1,0.2,0.3,0.3,0.5,0.3c0.3,0,0.6-0.2,0.9-0.6
		c0.3-0.6,0.5-1.2,0.5-2.1c0-0.6-0.1-1.1-0.2-1.3S65.8,45.4,65.6,45.4z"/>
	<path fill="#00696B" d="M68.3,48.8c0.1,0,0.3,0.1,0.4,0.2c0.1,0.1,0.1,0.3,0.1,0.5c0,0.3-0.1,0.5-0.2,0.6c-0.1,0.2-0.3,0.2-0.4,0.2
		c-0.1,0-0.3-0.1-0.4-0.2c-0.1-0.1-0.1-0.3-0.1-0.4c0-0.3,0.1-0.5,0.2-0.7C68,48.9,68.2,48.8,68.3,48.8z"/>
</g>
</svg>
